<?xml version="1.0" encoding="UTF-8"?>
<svg xmlns="http://www.w3.org/2000/svg" viewBox="0 0 24 24" fill="none">
  <path d="M14 2H7a2 2 0 0 0-2 2v16a2 2 0 0 0 2 2h10a2 2 0 0 0 2-2V7l-5-5z" stroke="currentColor" stroke-width="1.8" stroke-linejoin="round"/>
  <path d="M14 2v5h5" stroke="currentColor" stroke-width="1.8" stroke-linejoin="round"/>
  <path d="M7.5 16.8v-3.6h1.2c.9 0 1.5.6 1.5 1.4 0 .9-.6 1.5-1.5 1.5H7.5" stroke="currentColor" stroke-width="1.6" stroke-linecap="round"/>
  <path d="M11.2 16.8v-3.6h1.1c1.2 0 2 .7 2 1.8 0 1.1-.8 1.8-2 1.8h-1.1" stroke="currentColor" stroke-width="1.6" stroke-linecap="round"/>
  <path d="M15.8 16.8v-3.6H18" stroke="currentColor" stroke-width="1.6" stroke-linecap="round"/>
  <path d="M15.8 15h1.8" stroke="currentColor" stroke-width="1.6" stroke-linecap="round"/>
</svg>
